<mxfile host="app.diagrams.net" agent="Mozilla/5.0 (Windows NT 10.0; Win64; x64) AppleWebKit/537.36 (KHTML, like Gecko) Chrome/134.0.0.0 Safari/537.36" version="26.1.1">
  <diagram name="Page-1" id="VRi3XIfxqkQQI7xMkuqg">
    <mxGraphModel dx="1588" dy="1719" grid="1" gridSize="10" guides="1" tooltips="1" connect="1" arrows="1" fold="1" page="1" pageScale="1" pageWidth="1169" pageHeight="827" math="0" shadow="0">
      <root>
        <mxCell id="0" />
        <mxCell id="1" parent="0" />
        <mxCell id="XSoBLDAF2X4YTmIJwsgC-1" value="&lt;font face=&quot;Lucida Console&quot; style=&quot;font-size: 24px;&quot;&gt;Client&lt;/font&gt;" style="shape=umlActor;verticalLabelPosition=bottom;verticalAlign=top;html=1;outlineConnect=0;strokeWidth=4;" vertex="1" parent="1">
          <mxGeometry x="70" y="70" width="80" height="140" as="geometry" />
        </mxCell>
        <mxCell id="XSoBLDAF2X4YTmIJwsgC-4" value="Vertical Container" style="swimlane;whiteSpace=wrap;html=1;" vertex="1" parent="1">
          <mxGeometry x="370" y="-70" width="970" height="990" as="geometry" />
        </mxCell>
        <mxCell id="XSoBLDAF2X4YTmIJwsgC-6" value="&lt;font style=&quot;font-size: 24px;&quot;&gt;Log in&lt;/font&gt;" style="ellipse;whiteSpace=wrap;html=1;strokeWidth=5;" vertex="1" parent="XSoBLDAF2X4YTmIJwsgC-4">
          <mxGeometry x="260" y="150" width="220" height="160" as="geometry" />
        </mxCell>
        <mxCell id="XSoBLDAF2X4YTmIJwsgC-7" value="&lt;font style=&quot;font-size: 24px;&quot;&gt;Register&lt;/font&gt;" style="ellipse;whiteSpace=wrap;html=1;strokeWidth=7;" vertex="1" parent="XSoBLDAF2X4YTmIJwsgC-4">
          <mxGeometry x="510" y="40" width="220" height="110" as="geometry" />
        </mxCell>
        <mxCell id="XSoBLDAF2X4YTmIJwsgC-15" value="&lt;font style=&quot;font-size: 24px;&quot;&gt;&amp;lt;&amp;lt;extend&amp;gt;&amp;gt;&lt;/font&gt;" style="edgeStyle=none;html=1;startArrow=open;endArrow=none;startSize=32;verticalAlign=bottom;dashed=1;labelBackgroundColor=none;rounded=0;endSize=10;jumpSize=15;strokeWidth=6;exitX=0.885;exitY=0.231;exitDx=0;exitDy=0;exitPerimeter=0;" edge="1" parent="XSoBLDAF2X4YTmIJwsgC-4" source="XSoBLDAF2X4YTmIJwsgC-6" target="XSoBLDAF2X4YTmIJwsgC-7">
          <mxGeometry x="0.3207" y="-43" width="160" relative="1" as="geometry">
            <mxPoint x="490" y="200" as="sourcePoint" />
            <mxPoint x="524.9979632594607" y="70.00245439990087" as="targetPoint" />
            <Array as="points" />
            <mxPoint x="-1" as="offset" />
          </mxGeometry>
        </mxCell>
        <mxCell id="XSoBLDAF2X4YTmIJwsgC-23" value="&lt;font style=&quot;font-size: 24px;&quot;&gt;Manage users (CRUD ops)&lt;/font&gt;" style="ellipse;whiteSpace=wrap;html=1;strokeWidth=4;perimeterSpacing=2;" vertex="1" parent="XSoBLDAF2X4YTmIJwsgC-4">
          <mxGeometry x="400" y="340" width="250" height="130" as="geometry" />
        </mxCell>
        <mxCell id="XSoBLDAF2X4YTmIJwsgC-42" value="&lt;font style=&quot;font-size: 18px;&quot;&gt;&lt;b&gt;Manage Own data&lt;/b&gt;&lt;/font&gt;" style="ellipse;whiteSpace=wrap;html=1;" vertex="1" parent="XSoBLDAF2X4YTmIJwsgC-4">
          <mxGeometry x="100" y="350" width="220" height="110" as="geometry" />
        </mxCell>
        <mxCell id="XSoBLDAF2X4YTmIJwsgC-48" value="&lt;b&gt;&lt;font style=&quot;font-size: 18px;&quot;&gt;&amp;lt;&amp;lt;include&amp;gt;&amp;gt;&lt;/font&gt;&lt;/b&gt;" style="html=1;verticalAlign=bottom;labelBackgroundColor=none;endArrow=open;endFill=0;dashed=1;rounded=0;entryX=1;entryY=1;entryDx=0;entryDy=0;endSize=18;startSize=4;fontSize=17;jumpSize=40;targetPerimeterSpacing=7;sourcePerimeterSpacing=1;strokeWidth=5;exitX=0;exitY=0.5;exitDx=0;exitDy=0;" edge="1" parent="XSoBLDAF2X4YTmIJwsgC-4" source="XSoBLDAF2X4YTmIJwsgC-23" target="XSoBLDAF2X4YTmIJwsgC-42">
          <mxGeometry x="0.1383" y="30" width="160" relative="1" as="geometry">
            <mxPoint x="360" y="560" as="sourcePoint" />
            <mxPoint x="440" y="560" as="targetPoint" />
            <mxPoint x="1" as="offset" />
          </mxGeometry>
        </mxCell>
        <mxCell id="XSoBLDAF2X4YTmIJwsgC-50" value="&lt;font style=&quot;font-size: 15px;&quot;&gt;Filter publications&lt;/font&gt;" style="ellipse;whiteSpace=wrap;html=1;" vertex="1" parent="XSoBLDAF2X4YTmIJwsgC-4">
          <mxGeometry x="60" y="680" width="190" height="80" as="geometry" />
        </mxCell>
        <mxCell id="XSoBLDAF2X4YTmIJwsgC-51" value="&lt;font style=&quot;font-size: 16px;&quot;&gt;View publicatios&lt;/font&gt;" style="ellipse;whiteSpace=wrap;html=1;" vertex="1" parent="XSoBLDAF2X4YTmIJwsgC-4">
          <mxGeometry x="350" y="680" width="160" height="110" as="geometry" />
        </mxCell>
        <mxCell id="XSoBLDAF2X4YTmIJwsgC-53" value="&lt;font style=&quot;font-size: 15px;&quot;&gt;Request publication&lt;/font&gt;" style="ellipse;whiteSpace=wrap;html=1;" vertex="1" parent="XSoBLDAF2X4YTmIJwsgC-4">
          <mxGeometry x="600" y="710" width="180" height="80" as="geometry" />
        </mxCell>
        <mxCell id="XSoBLDAF2X4YTmIJwsgC-58" value="&lt;font style=&quot;font-size: 24px;&quot;&gt;&amp;lt;&amp;lt;extend&amp;gt;&amp;gt;&lt;/font&gt;" style="edgeStyle=none;html=1;startArrow=open;endArrow=none;startSize=32;verticalAlign=bottom;dashed=1;labelBackgroundColor=none;rounded=0;endSize=10;jumpSize=15;strokeWidth=6;" edge="1" parent="XSoBLDAF2X4YTmIJwsgC-4">
          <mxGeometry x="0.3207" y="-43" width="160" relative="1" as="geometry">
            <mxPoint x="500" y="757.45" as="sourcePoint" />
            <mxPoint x="609.9989254222196" y="742.5557545514408" as="targetPoint" />
            <Array as="points" />
            <mxPoint x="-1" as="offset" />
          </mxGeometry>
        </mxCell>
        <mxCell id="XSoBLDAF2X4YTmIJwsgC-59" value="&lt;font style=&quot;font-size: 24px;&quot;&gt;&amp;lt;&amp;lt;extend&amp;gt;&amp;gt;&lt;/font&gt;" style="edgeStyle=none;html=1;startArrow=open;endArrow=none;startSize=32;verticalAlign=bottom;dashed=1;labelBackgroundColor=none;rounded=0;endSize=10;jumpSize=15;strokeWidth=6;" edge="1" parent="XSoBLDAF2X4YTmIJwsgC-4">
          <mxGeometry x="-0.1921" y="-42" width="160" relative="1" as="geometry">
            <mxPoint x="240" y="744.8900000000001" as="sourcePoint" />
            <mxPoint x="349.9989254222196" y="729.9957545514409" as="targetPoint" />
            <Array as="points" />
            <mxPoint x="1" y="-1" as="offset" />
          </mxGeometry>
        </mxCell>
        <mxCell id="XSoBLDAF2X4YTmIJwsgC-60" value="&lt;font style=&quot;font-size: 15px;&quot;&gt;Manage publication&lt;/font&gt;" style="ellipse;whiteSpace=wrap;html=1;" vertex="1" parent="XSoBLDAF2X4YTmIJwsgC-4">
          <mxGeometry x="470" y="500" width="250" height="100" as="geometry" />
        </mxCell>
        <mxCell id="XSoBLDAF2X4YTmIJwsgC-61" value="&lt;b&gt;&lt;font style=&quot;font-size: 18px;&quot;&gt;&amp;lt;&amp;lt;include&amp;gt;&amp;gt;&lt;/font&gt;&lt;/b&gt;" style="html=1;verticalAlign=bottom;labelBackgroundColor=none;endArrow=open;endFill=0;dashed=1;rounded=0;endSize=18;startSize=4;fontSize=17;jumpSize=40;targetPerimeterSpacing=7;sourcePerimeterSpacing=1;strokeWidth=5;exitX=0;exitY=0.5;exitDx=0;exitDy=0;" edge="1" parent="XSoBLDAF2X4YTmIJwsgC-4">
          <mxGeometry x="0.1383" y="30" width="160" relative="1" as="geometry">
            <mxPoint x="485" y="560" as="sourcePoint" />
            <mxPoint x="340" y="510" as="targetPoint" />
            <mxPoint x="1" as="offset" />
          </mxGeometry>
        </mxCell>
        <mxCell id="XSoBLDAF2X4YTmIJwsgC-66" value="" style="endArrow=none;html=1;rounded=0;" edge="1" parent="XSoBLDAF2X4YTmIJwsgC-4" target="XSoBLDAF2X4YTmIJwsgC-5">
          <mxGeometry width="50" height="50" relative="1" as="geometry">
            <mxPoint x="710" y="550" as="sourcePoint" />
            <mxPoint x="760" y="500" as="targetPoint" />
          </mxGeometry>
        </mxCell>
        <mxCell id="XSoBLDAF2X4YTmIJwsgC-5" value="&lt;font style=&quot;font-size: 24px;&quot;&gt;Admin&lt;/font&gt;" style="shape=umlActor;verticalLabelPosition=bottom;verticalAlign=top;html=1;outlineConnect=0;strokeWidth=5;" vertex="1" parent="1">
          <mxGeometry x="1440" y="30" width="60" height="130" as="geometry" />
        </mxCell>
        <mxCell id="XSoBLDAF2X4YTmIJwsgC-19" value="" style="endArrow=none;html=1;rounded=0;entryX=0.015;entryY=0.579;entryDx=0;entryDy=0;exitX=0.5;exitY=0.5;exitDx=0;exitDy=0;exitPerimeter=0;entryPerimeter=0;" edge="1" parent="1" source="XSoBLDAF2X4YTmIJwsgC-1" target="XSoBLDAF2X4YTmIJwsgC-6">
          <mxGeometry width="50" height="50" relative="1" as="geometry">
            <mxPoint x="300" y="340" as="sourcePoint" />
            <mxPoint x="350" y="290" as="targetPoint" />
          </mxGeometry>
        </mxCell>
        <mxCell id="XSoBLDAF2X4YTmIJwsgC-22" value="" style="endArrow=none;html=1;rounded=0;exitX=1;exitY=0.5;exitDx=0;exitDy=0;entryX=0.5;entryY=0.5;entryDx=0;entryDy=0;entryPerimeter=0;" edge="1" parent="1" source="XSoBLDAF2X4YTmIJwsgC-6" target="XSoBLDAF2X4YTmIJwsgC-5">
          <mxGeometry width="50" height="50" relative="1" as="geometry">
            <mxPoint x="910" y="310" as="sourcePoint" />
            <mxPoint x="960" y="260" as="targetPoint" />
            <Array as="points" />
          </mxGeometry>
        </mxCell>
        <mxCell id="XSoBLDAF2X4YTmIJwsgC-25" value="" style="endArrow=none;html=1;rounded=0;exitX=0.945;exitY=0.34;exitDx=0;exitDy=0;exitPerimeter=0;entryX=0.5;entryY=0.5;entryDx=0;entryDy=0;entryPerimeter=0;" edge="1" parent="1" source="XSoBLDAF2X4YTmIJwsgC-23" target="XSoBLDAF2X4YTmIJwsgC-5">
          <mxGeometry width="50" height="50" relative="1" as="geometry">
            <mxPoint x="1120" y="420" as="sourcePoint" />
            <mxPoint x="1170" y="370" as="targetPoint" />
          </mxGeometry>
        </mxCell>
        <mxCell id="XSoBLDAF2X4YTmIJwsgC-63" value="" style="endArrow=none;html=1;rounded=0;exitX=0;exitY=0;exitDx=0;exitDy=0;entryX=0.5;entryY=0.5;entryDx=0;entryDy=0;entryPerimeter=0;" edge="1" parent="1" source="XSoBLDAF2X4YTmIJwsgC-50" target="XSoBLDAF2X4YTmIJwsgC-1">
          <mxGeometry width="50" height="50" relative="1" as="geometry">
            <mxPoint x="110" y="270" as="sourcePoint" />
            <mxPoint x="150" y="160" as="targetPoint" />
          </mxGeometry>
        </mxCell>
      </root>
    </mxGraphModel>
  </diagram>
</mxfile>
